<mxfile host="app.diagrams.net" modified="2024-07-20T08:23:35.882Z" agent="Mozilla/5.0 (Windows NT 10.0; Win64; x64) AppleWebKit/537.36 (KHTML, like Gecko) Chrome/122.0.6261.95 Safari/537.36" etag="Hn65KrVCu8foOptGDOes" version="24.7.1" type="device">
  <diagram name="第 1 页" id="Os02djMP6nQ61nn9wpMG">
    <mxGraphModel dx="1829" dy="557" grid="1" gridSize="10" guides="1" tooltips="1" connect="1" arrows="1" fold="1" page="1" pageScale="1" pageWidth="827" pageHeight="1169" math="0" shadow="0">
      <root>
        <mxCell id="0" />
        <mxCell id="1" parent="0" />
        <mxCell id="7Igz5OdZMxrs4lHP5w7K-7" value="服务器" style="shape=hexagon;perimeter=hexagonPerimeter2;whiteSpace=wrap;html=1;fixedSize=1;" vertex="1" parent="1">
          <mxGeometry x="200" y="40" width="90" height="40" as="geometry" />
        </mxCell>
        <mxCell id="7Igz5OdZMxrs4lHP5w7K-8" value="客户端" style="shape=hexagon;perimeter=hexagonPerimeter2;whiteSpace=wrap;html=1;fixedSize=1;" vertex="1" parent="1">
          <mxGeometry x="550" y="40" width="90" height="40" as="geometry" />
        </mxCell>
        <mxCell id="7Igz5OdZMxrs4lHP5w7K-9" value="对象层" style="shape=hexagon;perimeter=hexagonPerimeter2;whiteSpace=wrap;html=1;fixedSize=1;" vertex="1" parent="1">
          <mxGeometry x="-40" y="130" width="90" height="40" as="geometry" />
        </mxCell>
        <mxCell id="7Igz5OdZMxrs4lHP5w7K-10" value="逻辑层" style="shape=hexagon;perimeter=hexagonPerimeter2;whiteSpace=wrap;html=1;fixedSize=1;" vertex="1" parent="1">
          <mxGeometry x="-130" y="260" width="90" height="40" as="geometry" />
        </mxCell>
        <mxCell id="7Igz5OdZMxrs4lHP5w7K-11" value="网络传输层" style="shape=hexagon;perimeter=hexagonPerimeter2;whiteSpace=wrap;html=1;fixedSize=1;" vertex="1" parent="1">
          <mxGeometry x="-40" y="450" width="90" height="40" as="geometry" />
        </mxCell>
        <mxCell id="7Igz5OdZMxrs4lHP5w7K-15" value="服务层" style="shape=hexagon;perimeter=hexagonPerimeter2;whiteSpace=wrap;html=1;fixedSize=1;" vertex="1" parent="1">
          <mxGeometry x="-10" y="220" width="90" height="40" as="geometry" />
        </mxCell>
        <mxCell id="7Igz5OdZMxrs4lHP5w7K-16" value="管理层" style="shape=hexagon;perimeter=hexagonPerimeter2;whiteSpace=wrap;html=1;fixedSize=1;" vertex="1" parent="1">
          <mxGeometry x="-10" y="300" width="90" height="40" as="geometry" />
        </mxCell>
        <mxCell id="7Igz5OdZMxrs4lHP5w7K-17" value="" style="endArrow=none;html=1;rounded=0;entryX=0;entryY=0.5;entryDx=0;entryDy=0;exitX=1;exitY=0.5;exitDx=0;exitDy=0;" edge="1" parent="1" source="7Igz5OdZMxrs4lHP5w7K-10" target="7Igz5OdZMxrs4lHP5w7K-15">
          <mxGeometry width="50" height="50" relative="1" as="geometry">
            <mxPoint x="-90" y="370" as="sourcePoint" />
            <mxPoint x="-40" y="320" as="targetPoint" />
          </mxGeometry>
        </mxCell>
        <mxCell id="7Igz5OdZMxrs4lHP5w7K-18" value="" style="endArrow=none;html=1;rounded=0;entryX=0;entryY=0.5;entryDx=0;entryDy=0;exitX=1;exitY=0.5;exitDx=0;exitDy=0;" edge="1" parent="1" source="7Igz5OdZMxrs4lHP5w7K-10" target="7Igz5OdZMxrs4lHP5w7K-16">
          <mxGeometry width="50" height="50" relative="1" as="geometry">
            <mxPoint x="-30" y="290" as="sourcePoint" />
            <mxPoint y="270" as="targetPoint" />
          </mxGeometry>
        </mxCell>
        <mxCell id="7Igz5OdZMxrs4lHP5w7K-32" value="" style="swimlane;startSize=0;" vertex="1" parent="1">
          <mxGeometry x="89" y="375" width="650" height="210" as="geometry" />
        </mxCell>
        <mxCell id="7Igz5OdZMxrs4lHP5w7K-22" value="协议" style="rounded=0;whiteSpace=wrap;html=1;" vertex="1" parent="7Igz5OdZMxrs4lHP5w7K-32">
          <mxGeometry x="70" y="40" width="90" height="40" as="geometry" />
        </mxCell>
        <mxCell id="7Igz5OdZMxrs4lHP5w7K-23" value="二进制" style="rounded=0;whiteSpace=wrap;html=1;" vertex="1" parent="7Igz5OdZMxrs4lHP5w7K-32">
          <mxGeometry x="258.5" y="40" width="90" height="40" as="geometry" />
        </mxCell>
        <mxCell id="7Igz5OdZMxrs4lHP5w7K-24" value="协议" style="rounded=0;whiteSpace=wrap;html=1;" vertex="1" parent="7Igz5OdZMxrs4lHP5w7K-32">
          <mxGeometry x="450" y="40" width="90" height="40" as="geometry" />
        </mxCell>
        <mxCell id="7Igz5OdZMxrs4lHP5w7K-25" value="Dispatch" style="rounded=0;whiteSpace=wrap;html=1;" vertex="1" parent="7Igz5OdZMxrs4lHP5w7K-32">
          <mxGeometry x="450" y="130" width="90" height="40" as="geometry" />
        </mxCell>
        <mxCell id="7Igz5OdZMxrs4lHP5w7K-26" value="Distribute" style="rounded=0;whiteSpace=wrap;html=1;" vertex="1" parent="7Igz5OdZMxrs4lHP5w7K-32">
          <mxGeometry x="259" y="130" width="90" height="40" as="geometry" />
        </mxCell>
        <mxCell id="7Igz5OdZMxrs4lHP5w7K-27" value="" style="endArrow=classic;html=1;rounded=0;exitX=1;exitY=0.5;exitDx=0;exitDy=0;entryX=0;entryY=0.5;entryDx=0;entryDy=0;" edge="1" parent="7Igz5OdZMxrs4lHP5w7K-32" source="7Igz5OdZMxrs4lHP5w7K-22" target="7Igz5OdZMxrs4lHP5w7K-23">
          <mxGeometry width="50" height="50" relative="1" as="geometry">
            <mxPoint x="190" y="50" as="sourcePoint" />
            <mxPoint x="240" as="targetPoint" />
          </mxGeometry>
        </mxCell>
        <mxCell id="7Igz5OdZMxrs4lHP5w7K-28" value="" style="endArrow=classic;html=1;rounded=0;exitX=1;exitY=0.5;exitDx=0;exitDy=0;entryX=0;entryY=0.5;entryDx=0;entryDy=0;" edge="1" parent="7Igz5OdZMxrs4lHP5w7K-32" source="7Igz5OdZMxrs4lHP5w7K-23" target="7Igz5OdZMxrs4lHP5w7K-24">
          <mxGeometry width="50" height="50" relative="1" as="geometry">
            <mxPoint x="348.5" y="10" as="sourcePoint" />
            <mxPoint x="447.5" y="10" as="targetPoint" />
          </mxGeometry>
        </mxCell>
        <mxCell id="7Igz5OdZMxrs4lHP5w7K-29" value="" style="endArrow=classic;html=1;rounded=0;exitX=0.5;exitY=1;exitDx=0;exitDy=0;entryX=0.5;entryY=0;entryDx=0;entryDy=0;" edge="1" parent="7Igz5OdZMxrs4lHP5w7K-32" source="7Igz5OdZMxrs4lHP5w7K-24" target="7Igz5OdZMxrs4lHP5w7K-25">
          <mxGeometry width="50" height="50" relative="1" as="geometry">
            <mxPoint x="550" y="40" as="sourcePoint" />
            <mxPoint x="651" y="40" as="targetPoint" />
          </mxGeometry>
        </mxCell>
        <mxCell id="7Igz5OdZMxrs4lHP5w7K-30" value="" style="endArrow=classic;html=1;rounded=0;exitX=0;exitY=0.5;exitDx=0;exitDy=0;entryX=1;entryY=0.5;entryDx=0;entryDy=0;" edge="1" parent="7Igz5OdZMxrs4lHP5w7K-32" source="7Igz5OdZMxrs4lHP5w7K-25" target="7Igz5OdZMxrs4lHP5w7K-26">
          <mxGeometry width="50" height="50" relative="1" as="geometry">
            <mxPoint x="505" y="90" as="sourcePoint" />
            <mxPoint x="505" y="140" as="targetPoint" />
          </mxGeometry>
        </mxCell>
        <mxCell id="7Igz5OdZMxrs4lHP5w7K-33" value="" style="swimlane;startSize=0;" vertex="1" parent="1">
          <mxGeometry x="90" y="190" width="320" height="185" as="geometry" />
        </mxCell>
        <mxCell id="7Igz5OdZMxrs4lHP5w7K-14" value="Service" style="rounded=0;whiteSpace=wrap;html=1;" vertex="1" parent="7Igz5OdZMxrs4lHP5w7K-33">
          <mxGeometry x="105" y="32.5" width="90" height="40" as="geometry" />
        </mxCell>
        <mxCell id="7Igz5OdZMxrs4lHP5w7K-19" value="Manager" style="rounded=0;whiteSpace=wrap;html=1;" vertex="1" parent="7Igz5OdZMxrs4lHP5w7K-33">
          <mxGeometry x="105" y="112.5" width="90" height="40" as="geometry" />
        </mxCell>
        <mxCell id="7Igz5OdZMxrs4lHP5w7K-35" value="" style="swimlane;startSize=0;" vertex="1" parent="1">
          <mxGeometry x="410" y="190" width="329" height="185" as="geometry" />
        </mxCell>
        <mxCell id="7Igz5OdZMxrs4lHP5w7K-36" value="Service" style="rounded=0;whiteSpace=wrap;html=1;" vertex="1" parent="7Igz5OdZMxrs4lHP5w7K-35">
          <mxGeometry x="130" y="32.5" width="90" height="40" as="geometry" />
        </mxCell>
        <mxCell id="7Igz5OdZMxrs4lHP5w7K-37" value="Manager" style="rounded=0;whiteSpace=wrap;html=1;" vertex="1" parent="7Igz5OdZMxrs4lHP5w7K-35">
          <mxGeometry x="130" y="112.5" width="90" height="40" as="geometry" />
        </mxCell>
        <mxCell id="7Igz5OdZMxrs4lHP5w7K-38" value="" style="swimlane;startSize=0;" vertex="1" parent="1">
          <mxGeometry x="410" y="100" width="330" height="90" as="geometry" />
        </mxCell>
        <mxCell id="7Igz5OdZMxrs4lHP5w7K-13" value="UI" style="rounded=0;whiteSpace=wrap;html=1;" vertex="1" parent="7Igz5OdZMxrs4lHP5w7K-38">
          <mxGeometry x="180" y="25" width="90" height="40" as="geometry" />
        </mxCell>
        <mxCell id="7Igz5OdZMxrs4lHP5w7K-12" value="GameObject" style="rounded=0;whiteSpace=wrap;html=1;" vertex="1" parent="7Igz5OdZMxrs4lHP5w7K-38">
          <mxGeometry x="70" y="25" width="90" height="40" as="geometry" />
        </mxCell>
        <mxCell id="7Igz5OdZMxrs4lHP5w7K-39" value="" style="swimlane;startSize=0;" vertex="1" parent="1">
          <mxGeometry x="90" y="100" width="320" height="90" as="geometry" />
        </mxCell>
      </root>
    </mxGraphModel>
  </diagram>
</mxfile>
